<mxfile host="app.diagrams.net" modified="2022-10-14T09:45:10.023Z" agent="5.0 (Windows NT 10.0; Win64; x64) AppleWebKit/537.36 (KHTML, like Gecko) Chrome/106.0.0.0 Safari/537.36" etag="tT_uxKaOcHX2kJXajqA6" version="20.4.1" type="github">
  <diagram id="SVKgzdXAhsgsA3PJ54q3" name="Page-1">
    <mxGraphModel dx="1422" dy="794" grid="1" gridSize="10" guides="1" tooltips="1" connect="1" arrows="1" fold="1" page="1" pageScale="1" pageWidth="827" pageHeight="1169" math="0" shadow="0">
      <root>
        <mxCell id="0" />
        <mxCell id="1" parent="0" />
        <mxCell id="yYol8g6jG33dU-1mYP1G-1" value="Client" style="shape=umlActor;verticalLabelPosition=bottom;verticalAlign=top;html=1;outlineConnect=0;" vertex="1" parent="1">
          <mxGeometry x="80" y="80" width="30" height="60" as="geometry" />
        </mxCell>
        <mxCell id="yYol8g6jG33dU-1mYP1G-2" value="Employé" style="shape=umlActor;verticalLabelPosition=bottom;verticalAlign=top;html=1;outlineConnect=0;" vertex="1" parent="1">
          <mxGeometry x="80" y="370" width="30" height="60" as="geometry" />
        </mxCell>
        <mxCell id="yYol8g6jG33dU-1mYP1G-3" value="" style="endArrow=classic;html=1;rounded=0;entryX=0;entryY=0.5;entryDx=0;entryDy=0;exitX=1;exitY=0.5;exitDx=0;exitDy=0;" edge="1" parent="1" source="yYol8g6jG33dU-1mYP1G-9" target="yYol8g6jG33dU-1mYP1G-4">
          <mxGeometry width="50" height="50" relative="1" as="geometry">
            <mxPoint x="120" y="400" as="sourcePoint" />
            <mxPoint x="270" y="400" as="targetPoint" />
          </mxGeometry>
        </mxCell>
        <mxCell id="yYol8g6jG33dU-1mYP1G-4" value="Ajouter des articles" style="ellipse;whiteSpace=wrap;html=1;" vertex="1" parent="1">
          <mxGeometry x="520" y="370" width="120" height="80" as="geometry" />
        </mxCell>
        <mxCell id="yYol8g6jG33dU-1mYP1G-8" value="" style="endArrow=classic;html=1;rounded=0;" edge="1" parent="1" target="yYol8g6jG33dU-1mYP1G-9">
          <mxGeometry width="50" height="50" relative="1" as="geometry">
            <mxPoint x="120" y="410" as="sourcePoint" />
            <mxPoint x="270" y="490" as="targetPoint" />
          </mxGeometry>
        </mxCell>
        <mxCell id="yYol8g6jG33dU-1mYP1G-9" value="Gérer les stocks" style="ellipse;whiteSpace=wrap;html=1;" vertex="1" parent="1">
          <mxGeometry x="280" y="370" width="120" height="80" as="geometry" />
        </mxCell>
        <mxCell id="yYol8g6jG33dU-1mYP1G-10" value="" style="endArrow=classic;html=1;rounded=0;" edge="1" parent="1" target="yYol8g6jG33dU-1mYP1G-11">
          <mxGeometry width="50" height="50" relative="1" as="geometry">
            <mxPoint x="120" y="120" as="sourcePoint" />
            <mxPoint x="200" y="120" as="targetPoint" />
          </mxGeometry>
        </mxCell>
        <mxCell id="yYol8g6jG33dU-1mYP1G-11" value="Consulter la boutique" style="ellipse;whiteSpace=wrap;html=1;" vertex="1" parent="1">
          <mxGeometry x="280" y="79.99999999999994" width="120" height="80" as="geometry" />
        </mxCell>
        <mxCell id="yYol8g6jG33dU-1mYP1G-13" value="Extends" style="text;html=1;strokeColor=none;fillColor=none;align=center;verticalAlign=middle;whiteSpace=wrap;rounded=0;" vertex="1" parent="1">
          <mxGeometry x="430" y="385" width="60" height="30" as="geometry" />
        </mxCell>
        <mxCell id="yYol8g6jG33dU-1mYP1G-14" value="" style="endArrow=classic;html=1;rounded=0;" edge="1" parent="1" target="yYol8g6jG33dU-1mYP1G-15">
          <mxGeometry width="50" height="50" relative="1" as="geometry">
            <mxPoint x="400" y="120" as="sourcePoint" />
            <mxPoint x="550" y="120" as="targetPoint" />
          </mxGeometry>
        </mxCell>
        <mxCell id="yYol8g6jG33dU-1mYP1G-15" value="Gérer son panier" style="ellipse;whiteSpace=wrap;html=1;" vertex="1" parent="1">
          <mxGeometry x="520" y="80" width="120" height="80" as="geometry" />
        </mxCell>
        <mxCell id="yYol8g6jG33dU-1mYP1G-16" value="Extends" style="text;html=1;strokeColor=none;fillColor=none;align=center;verticalAlign=middle;whiteSpace=wrap;rounded=0;" vertex="1" parent="1">
          <mxGeometry x="430" y="100" width="60" height="30" as="geometry" />
        </mxCell>
        <mxCell id="yYol8g6jG33dU-1mYP1G-17" value="" style="endArrow=classic;html=1;rounded=0;" edge="1" parent="1" target="yYol8g6jG33dU-1mYP1G-18">
          <mxGeometry width="50" height="50" relative="1" as="geometry">
            <mxPoint x="120" y="400" as="sourcePoint" />
            <mxPoint x="280" y="330" as="targetPoint" />
          </mxGeometry>
        </mxCell>
        <mxCell id="yYol8g6jG33dU-1mYP1G-18" value="Éditer les factures" style="ellipse;whiteSpace=wrap;html=1;" vertex="1" parent="1">
          <mxGeometry x="280" y="260" width="120" height="80" as="geometry" />
        </mxCell>
      </root>
    </mxGraphModel>
  </diagram>
</mxfile>
